<svg xmlns="http://www.w3.org/2000/svg" viewBox="0 0 64 64">
  <defs>
    <linearGradient id="g" x1="0" x2="1" y1="0" y2="1">
      <stop offset="0%" stop-color="#0fb5ba"/>
      <stop offset="100%" stop-color="#ff7a66"/>
    </linearGradient>
    <filter id="s" x="-20%" y="-20%" width="140%" height="140%">
      <feDropShadow dx="0" dy="2" stdDeviation="2" flood-color="#000" flood-opacity="0.25"/>
    </filter>
  </defs>
  <rect x="6" y="6" width="52" height="52" rx="14" ry="14" fill="#0d1720"/>
  <g filter="url(#s)">
    <circle cx="32" cy="32" r="22" fill="url(#g)" opacity="0.18"/>
  </g>
  <!-- Medical cross -->
  <g transform="translate(32 32)">
    <rect x="-6" y="-16" width="12" height="32" rx="2" fill="#0fb5ba"/>
    <rect x="-16" y="-6" width="32" height="12" rx="2" fill="#0fb5ba"/>
  </g>
  <!-- Small heart accent -->
  <path d="M45 22c-1.8 0-3.1 1.2-3.5 2.6C41.1 23.2 39.8 22 38 22c-2.2 0-4 1.8-4 4 0 4.2 5.5 6.8 7.8 9 2.3-2.2 7.8-4.8 7.8-9 0-2.2-1.8-4-4-4z" fill="#ff7a66" opacity="0.9"/>
</svg>
